<?xml version="1.0" encoding="utf-8"?>
<!-- Generator: Adobe Illustrator 22.0.1, SVG Export Plug-In . SVG Version: 6.00 Build 0)  -->
<svg version="1.1" id="Layer_1" xmlns="http://www.w3.org/2000/svg" xmlns:xlink="http://www.w3.org/1999/xlink" x="0px" y="0px"
	 viewBox="0 0 2000 2000" style="enable-background:new 0 0 2000 2000;" xml:space="preserve">
<style type="text/css">
	.st0{fill:#435363;}
	.st1{fill:#FFFFFF;}
</style>
<g>
	<g>
		<path class="st0" d="M1234.4,951.4c-6.4,0-12.5-0.7-18.4-2c-4.9,2.2-10.1,4.2-15.7,6c-9.7,3.1-20.5,3.8-30.5,4.8
			c-0.3,0-0.6,0-0.8,0.1V1110c0,85-70.3,156.5-155.3,156.5c-85,0-156.5-71.4-156.5-156.5V800.5c0-10.2-4.5-14.7-14.7-14.7h-53.3
			c-10.2,0-14.7,4.5-14.7,14.7V1110c0,65.8,23.8,122.4,70.3,168.9c46.5,46.5,103.2,70.3,168.9,70.3c65.8,0,122.4-23.8,168.9-70.3
			c46.5-46.5,70.3-103.2,70.3-168.9V949.3C1246.7,950.6,1240.5,951.4,1234.4,951.4z"/>
	</g>
</g>
<g>
	<path class="st0" d="M739.5,868.5H630.4c-85,0-156.5,71.4-156.5,156.5v309.5c0,10.2-4.5,14.7-14.7,14.7h-53.3
		c-10.2,0-14.7-4.5-14.7-14.7V1025c0-65.8,23.8-122.4,70.3-168.9c46.5-47.6,103.2-71.4,168.9-71.4h108.8h2.5"/>
</g>
<g>
	<g>
		<path class="st0" d="M1571.6,823.2c-45.9-47-101.9-70.5-166.8-70.5s-120.9,23.5-166.8,70.5c-45.9,45.9-69.4,101.9-69.4,166.8v91.1
			c5.1-1,10.2-1.5,15.3-1.5c27.3,0,50.7,12.5,66.4,31.7V990c0-84,70.5-154.5,154.5-154.5c84,0,154.5,70.5,154.5,154.5v305.6
			c0,10.1,4.5,14.6,14.6,14.6h52.6c10.1,0,14.6-4.5,14.6-14.6V990C1641,925,1617.5,869.1,1571.6,823.2z"/>
	</g>
</g>
<rect x="1391.2" y="706.4" class="st1" width="25.3" height="176.9"/>
</svg>
